<svg version="1.1" id="Layer_1" xmlns="http://www.w3.org/2000/svg" xmlns:xlink="http://www.w3.org/1999/xlink" x="0px" y="0px"
	 width="100%" viewBox="0 0 496 448" enable-background="new 0 0 496 448" xml:space="preserve">
<path fill="#BDCDD6" opacity="1.000000" stroke="none" 
	d="
M95.751411,403.462616 
	C86.645775,396.552795 83.525803,387.585144 83.559814,376.668762 
	C83.761185,312.025940 83.728821,247.382065 83.591644,182.738922 
	C83.580193,177.342163 85.125839,173.136948 88.699226,169.240494 
	C101.817421,154.936264 117.045761,143.014328 131.976532,130.768356 
	C134.733978,128.506744 136.040115,126.200111 135.689133,122.717773 
	C134.174896,107.694206 144.638779,94.848953 162.406845,96.125626 
	C171.997055,96.814705 179.429855,93.910767 186.934479,87.941391 
	C204.266052,74.155388 222.360641,61.331532 240.028351,47.962254 
	C242.780563,45.879631 244.736618,45.917885 247.515594,47.826778 
	C269.481934,62.915573 291.578705,77.814613 313.533997,92.919296 
	C316.730225,95.118195 319.922241,96.019180 323.748657,96.054077 
	C334.065521,96.148178 344.426025,95.200874 354.693665,96.591125 
	C366.680634,98.214180 375.130463,107.220314 374.086975,119.205971 
	C373.012115,131.552460 376.390717,140.053696 387.306488,146.773788 
	C397.164520,152.842697 405.795563,160.928223 414.081757,169.180222 
	C417.678680,172.762344 419.464447,176.646729 419.450714,181.987061 
	C419.281860,247.629730 419.347351,313.272980 419.335480,378.916107 
	C419.332275,396.609528 408.695343,407.332916 391.153839,407.335022 
	C297.354156,407.346252 203.554459,407.324127 109.754852,407.405396 
	C104.739365,407.409760 100.221039,406.402771 95.751411,403.462616 
M169.541214,251.397873 
	C179.327759,256.383392 189.112915,261.371643 198.902206,266.351776 
	C200.548050,267.189026 202.119003,268.003937 203.982208,266.600830 
	C210.441742,261.736481 216.967224,256.959686 223.467621,252.149582 
	C223.364639,251.776031 223.261673,251.402466 223.158691,251.028915 
	C205.095123,251.028915 187.031540,251.028915 168.580566,250.413574 
	C165.855713,245.611313 167.015213,243.662552 172.927109,243.638596 
	C191.252197,243.564316 209.578766,243.493683 227.902374,243.669266 
	C232.604980,243.714310 236.850830,243.161743 240.320679,239.771133 
	C242.693863,237.452148 244.920425,237.776154 247.363495,239.733902 
	C250.838440,242.518555 254.696030,243.855545 259.349945,243.628540 
	C281.821289,242.532455 304.316010,243.301224 326.800385,243.107544 
	C328.451141,243.093307 330.139038,243.238876 331.747772,243.592117 
	C333.592346,243.997086 334.516846,245.341995 334.427124,247.270813 
	C334.338837,249.168060 333.338470,250.516068 331.512360,250.828461 
	C329.724854,251.134232 327.865448,251.076218 326.037384,251.079758 
	C307.878754,251.114822 289.720032,251.115067 271.561493,251.173508 
	C269.842072,251.179047 267.991516,250.755112 265.898560,252.070999 
	C274.638092,258.034088 283.040314,263.700836 291.359619,269.486816 
	C293.628754,271.064972 295.616608,270.704926 297.867828,269.570068 
	C319.579742,258.624878 341.301086,247.697937 363.061340,236.849258 
	C365.578125,235.594513 366.826324,234.051804 366.820557,231.102417 
	C366.747162,193.618820 366.773712,156.135040 366.756531,118.651314 
	C366.754395,114.028198 364.759827,110.339226 361.296814,107.339767 
	C357.436584,103.996269 352.786865,103.963074 348.081055,103.964996 
	C288.273560,103.989494 228.466080,103.996857 168.658585,104.014397 
	C164.994171,104.015472 161.320511,103.908966 157.667206,104.124390 
	C149.451416,104.608826 143.428986,110.439003 143.401154,118.602615 
	C143.268814,157.418671 143.348801,196.235428 143.303726,235.051880 
	C143.301086,237.317825 144.027176,238.793915 146.119614,239.798859 
	C153.772095,243.474274 161.375702,247.251419 169.541214,251.397873 
M381.491882,399.677551 
	C384.490875,399.677277 387.489929,399.685638 390.488892,399.675201 
	C401.992310,399.635223 408.639160,395.068512 410.935425,383.998749 
	C412.415131,376.865540 413.701843,369.231812 406.875244,363.215607 
	C395.760742,353.420563 383.979523,344.499481 372.081512,335.711914 
	C356.170349,323.960297 339.867859,312.760925 323.728180,301.331146 
	C298.633850,283.559906 272.953918,266.658264 247.611877,249.257248 
	C245.076019,247.516006 243.004608,247.364883 240.446457,249.331100 
	C233.341339,254.792191 226.043671,260.001831 218.871216,265.376373 
	C201.054932,278.726715 183.090714,291.887878 165.511292,305.543854 
	C144.516342,321.853088 123.311081,337.926361 103.585258,355.801849 
	C99.054611,359.907501 92.791855,363.420990 91.818604,369.635895 
	C89.565544,384.023346 93.231735,399.897064 114.087448,399.817261 
	C202.888702,399.477448 291.692017,399.675232 381.491882,399.677551 
M365.784637,321.665314 
	C381.128357,333.060364 396.200592,344.810730 411.095947,357.237183 
	C411.095947,311.708374 411.095947,266.943756 411.095947,221.374130 
	C374.510773,239.834991 338.716339,257.896820 302.267609,276.288818 
	C323.700867,291.598328 344.452209,306.420776 365.784637,321.665314 
M162.553818,298.017242 
	C173.040466,289.917480 183.527130,281.817719 194.753159,273.146851 
	C160.217209,255.745987 126.306145,238.659958 91.704956,221.226227 
	C91.704956,266.667969 91.704956,311.146332 91.704956,356.873962 
	C114.717934,335.825104 138.067963,316.790283 162.553818,298.017242 
M125.184151,145.711090 
	C116.924362,152.655930 108.660011,159.595337 100.406281,166.547363 
	C94.124626,171.838333 90.219009,177.950424 91.195343,186.826141 
	C91.936844,193.566849 91.480354,200.458420 91.283333,207.274979 
	C91.189430,210.523834 92.253922,212.385895 95.258980,213.865204 
	C106.294197,219.297592 117.166809,225.059311 128.151230,230.596695 
	C130.285965,231.672836 132.432663,232.972153 135.253387,233.135269 
	C135.253387,201.381577 135.253387,169.939835 135.253387,138.217621 
	C131.143921,139.852707 129.088501,143.437363 125.184151,145.711090 
M288.487671,95.714912 
	C292.882629,95.714912 297.277557,95.714912 302.978302,95.714912 
	C300.757477,93.886047 299.804596,92.966972 298.725769,92.233040 
	C281.445740,80.477158 264.127258,68.777626 246.881149,56.972294 
	C244.267532,55.183197 242.435333,56.007729 240.226425,57.670052 
	C231.345535,64.353310 222.320786,70.845093 213.422333,77.505348 
	C205.914078,83.125084 198.506882,88.879852 191.054947,94.574844 
	C191.171112,94.954948 191.287277,95.335045 191.403442,95.715149 
	C223.432831,95.715149 255.462204,95.715149 288.487671,95.714912 
M374.907684,195.500015 
	C375.175720,206.858963 374.377563,218.255493 375.461609,230.071396 
	C387.040100,224.353485 397.888885,218.974670 408.760834,213.643097 
	C411.251373,212.421738 411.720551,210.387085 411.698090,207.861771 
	C411.621185,199.203094 411.503082,190.538605 411.744659,181.885941 
	C411.862976,177.648972 410.160645,174.736282 407.250549,171.889069 
	C401.883606,166.638077 395.958618,162.075256 390.153503,157.370438 
	C385.623505,153.699020 380.798431,150.391586 375.442169,146.432922 
	C374.449219,163.226334 375.118103,178.870010 374.907684,195.500015 
z"/>
<path fill="#BDCDD6" opacity="1.000000" stroke="none" 
	d="
M291.000092,199.109894 
	C252.885925,199.135223 215.271713,199.154190 177.657516,199.171738 
	C176.492493,199.172287 175.327316,199.168015 174.162491,199.148972 
	C171.134811,199.099548 167.359711,199.324127 167.265823,195.282700 
	C167.161835,190.806671 171.205917,191.682190 174.051163,191.676788 
	C208.003723,191.612289 241.956512,191.647736 275.908966,191.557144 
	C292.047516,191.514099 308.185486,191.257141 324.323730,191.099609 
	C325.322235,191.089859 326.328735,191.022507 327.318085,191.119217 
	C330.316681,191.412399 334.497009,190.506149 334.354950,195.242920 
	C334.229187,199.438126 330.371826,199.037338 327.449677,199.056702 
	C315.466888,199.136139 303.483337,199.098114 291.000092,199.109894 
z"/>
<path fill="#BDCDD6" opacity="1.000000" stroke="none" 
	d="
M233.000137,139.605194 
	C264.160065,139.444397 294.819946,139.275803 325.479980,139.140869 
	C327.469513,139.132111 329.484711,139.233017 331.443085,139.555649 
	C333.244965,139.852493 334.406006,141.040726 334.456268,142.999481 
	C334.506409,144.952820 333.420715,146.210220 331.639771,146.618683 
	C330.037842,146.986099 328.346069,147.089447 326.693726,147.091034 
	C276.029755,147.139709 225.365768,147.161484 174.701767,147.186874 
	C174.201813,147.187119 173.701843,147.178253 173.201889,147.177216 
	C170.371368,147.171417 167.357422,146.763290 167.212814,143.349060 
	C167.053146,139.579391 170.269531,139.647186 173.003372,139.644806 
	C192.835617,139.627625 212.667877,139.617554 233.000137,139.605194 
z"/>
</svg>